<svg width="17" height="12" viewBox="0 0 17 12" fill="none" xmlns="http://www.w3.org/2000/svg">
<path fill-rule="evenodd" clip-rule="evenodd" d="M3.53369 0.233032H2.40388V4.93303H3.53369V0.233032ZM10.4255 4.93303H6.81013L6.35821 4.41603V3.47603L6.81013 3.05303H10.4255L10.8774 3.52303V4.46303L10.4255 4.93303ZM4.77648 7.75303H1.16109L0.709167 7.28303V6.34303L1.16109 5.87303H4.77648L5.2284 6.34303V7.28303L4.77648 7.75303ZM9.18273 0.233032H8.05292V2.11303H9.18273V0.233032ZM8.05292 5.87303H9.18273V11.513H8.05292V5.87303ZM3.53369 8.69303H2.40388V11.513H3.53369V8.69303ZM12.4592 8.69303H16.0633L16.5152 8.22303V7.33003L16.0633 6.86003H12.4592L12.0072 7.33003V8.22303L12.4592 8.69303ZM14.8318 0.233032H13.702V5.87303H14.8318V0.233032ZM13.702 9.63303H14.8318V11.513H13.702V9.63303Z" fill="white"/>
</svg>
