<svg width="16" height="13" viewBox="0 0 16 13" fill="none" xmlns="http://www.w3.org/2000/svg">
<path fill-rule="evenodd" clip-rule="evenodd" d="M2.82455 0.800049H1.69474V5.50005H2.82455V0.800049ZM9.71638 5.50005H6.10099L5.64907 4.98305V4.04305L6.10099 3.62005H9.71638L10.1683 4.09005V5.03005L9.71638 5.50005ZM4.06734 8.32005H0.451954L3.05176e-05 7.85005V6.91005L0.451954 6.44005H4.06734L4.51926 6.91005V7.85005L4.06734 8.32005ZM8.47359 0.800049H7.34378V2.68005H8.47359V0.800049ZM7.34378 6.44005H8.47359V12.08H7.34378V6.44005ZM2.82455 9.26005H1.69474V12.08H2.82455V9.26005ZM11.75 9.26005H15.3541L15.806 8.79005V7.89705L15.3541 7.42705H11.75L11.2981 7.89705V8.79005L11.75 9.26005ZM14.1226 0.800049H12.9928V6.44005H14.1226V0.800049ZM12.9928 10.2H14.1226V12.08H12.9928V10.2Z" fill="white"/>
</svg>
