<svg width="40" height="40" viewBox="0 0 40 40" fill="none" xmlns="http://www.w3.org/2000/svg">
<path fill-rule="evenodd" clip-rule="evenodd" d="M18.3334 4.33334C10.6014 4.33334 4.33337 10.6014 4.33337 18.3333C4.33337 26.0653 10.6014 32.3333 18.3334 32.3333C26.0654 32.3333 32.3334 26.0653 32.3334 18.3333C32.3334 10.6014 26.0654 4.33334 18.3334 4.33334ZM2.33337 18.3333C2.33337 9.49679 9.49682 2.33334 18.3334 2.33334C27.1699 2.33334 34.3334 9.49679 34.3334 18.3333C34.3334 27.1699 27.1699 34.3333 18.3334 34.3333C9.49682 34.3333 2.33337 27.1699 2.33337 18.3333Z" fill="#2D2D2D"/>
<path fill-rule="evenodd" clip-rule="evenodd" d="M29.2929 29.2929C29.6834 28.9024 30.3166 28.9024 30.7071 29.2929L37.3738 35.9596C37.7643 36.3501 37.7643 36.9832 37.3738 37.3738C36.9832 37.7643 36.3501 37.7643 35.9596 37.3738L29.2929 30.7071C28.9024 30.3166 28.9024 29.6834 29.2929 29.2929Z" fill="#2D2D2D"/>
</svg>
