<svg width="22" height="22" viewBox="0 0 22 22" fill="none" xmlns="http://www.w3.org/2000/svg">
<g clip-path="url(#clip0_13_2230)">
<path fill-rule="evenodd" clip-rule="evenodd" d="M0 10C0 4.47716 4.47716 0 10 0C15.5229 0 20 4.47716 20 10C20 15.5229 15.5229 20 10 20C4.47716 20 0 15.5229 0 10ZM10 2C5.58172 2 2 5.58172 2 10C2 14.4183 5.58172 18 10 18C14.4183 18 18 14.4183 18 10C18 5.58172 14.4183 2 10 2Z" fill="#818181"/>
<path fill-rule="evenodd" clip-rule="evenodd" d="M16.2929 16.2929C16.6834 15.9024 17.3166 15.9024 17.7071 16.2929L21.7071 20.2929C22.0976 20.6834 22.0976 21.3166 21.7071 21.7071C21.3166 22.0976 20.6834 22.0976 20.2929 21.7071L16.2929 17.7071C15.9024 17.3166 15.9024 16.6834 16.2929 16.2929Z" fill="#818181"/>
</g>
<defs>
<clipPath id="clip0_13_2230">
<rect width="22" height="22" fill="white"/>
</clipPath>
</defs>
</svg>
