<svg width="40" height="28" viewBox="0 0 40 28" fill="none" xmlns="http://www.w3.org/2000/svg">
<path d="M12.8876 23.086H12.8894L12.894 23.0857H34.1406C34.6637 23.0857 35.1236 22.7443 35.2673 22.2494L39.9548 6.1055C40.0558 5.75746 39.985 5.38329 39.7638 5.09441C39.5422 4.80552 39.1959 4.63556 38.8281 4.63556H10.1849L9.34723 0.926C9.2279 0.39838 8.75244 0.0230103 8.20312 0.0230103H1.17187C0.524597 0.0230103 0 0.53922 0 1.17615C0 1.81307 0.524597 2.32928 1.17187 2.32928H7.26318C7.4115 2.98663 11.272 20.0813 11.4941 21.0647C10.2487 21.5975 9.375 22.8194 9.375 24.2389C9.375 26.1464 10.9521 27.6983 12.8906 27.6983H34.1406C34.7879 27.6983 35.3125 27.1821 35.3125 26.5451C35.3125 25.9082 34.7879 25.392 34.1406 25.392H12.8906C12.2446 25.392 11.7187 24.8746 11.7187 24.2389C11.7187 23.604 12.2427 23.0875 12.8876 23.086ZM37.2745 6.94183L33.2565 20.7795H13.8306L10.7056 6.94183H37.2745Z" fill="#2D2D2D"/>
</svg>
